<mxfile host="app.diagrams.net" modified="2020-04-19T23:16:39.809Z" agent="5.0 (Windows NT 10.0; Win64; x64) AppleWebKit/537.36 (KHTML, like Gecko) Chrome/80.0.3987.163 Safari/537.36" etag="POBjitg8WIM5_hIrDSFU" version="12.9.14" type="github">
  <diagram id="3HDFvIetTPBBvEMZclZ0" name="Page-1">
    <mxGraphModel dx="1809" dy="2660" grid="1" gridSize="10" guides="1" tooltips="1" connect="1" arrows="1" fold="1" page="1" pageScale="1" pageWidth="850" pageHeight="1100" math="0" shadow="0">
      <root>
        <mxCell id="0" />
        <mxCell id="1" parent="0" />
        <mxCell id="MbkeHWpkh6mdkT8xZG1D-5" style="edgeStyle=orthogonalEdgeStyle;rounded=0;orthogonalLoop=1;jettySize=auto;html=1;exitX=1;exitY=0.5;exitDx=0;exitDy=0;entryX=0;entryY=0.5;entryDx=0;entryDy=0;strokeColor=#000000;strokeWidth=2;" edge="1" parent="1" source="ArJFxkqIO9tiFq1VX1RK-9" target="MbkeHWpkh6mdkT8xZG1D-1">
          <mxGeometry relative="1" as="geometry" />
        </mxCell>
        <mxCell id="ArJFxkqIO9tiFq1VX1RK-9" value="&amp;nbsp; &amp;nbsp; &amp;nbsp; &amp;nbsp; &amp;nbsp; &amp;nbsp; Control&amp;nbsp; &amp;nbsp; Pa-OK&amp;nbsp; &amp;nbsp; &amp;nbsp;De-Dif&lt;br&gt;&lt;br&gt;&amp;nbsp; 24 hr&amp;nbsp; &amp;nbsp; &amp;nbsp; &amp;nbsp;III&amp;nbsp; &amp;nbsp; &amp;nbsp; &amp;nbsp; &amp;nbsp; &amp;nbsp; &amp;nbsp;III&amp;nbsp; &amp;nbsp; &amp;nbsp; &amp;nbsp; &amp;nbsp; &amp;nbsp; III&lt;br&gt;&lt;br&gt;&amp;nbsp; 48 hr&amp;nbsp; &amp;nbsp; &amp;nbsp; &amp;nbsp;III&amp;nbsp; &amp;nbsp; &amp;nbsp; &amp;nbsp; &amp;nbsp; &amp;nbsp; &amp;nbsp;III&amp;nbsp; &amp;nbsp; &amp;nbsp; &amp;nbsp; &amp;nbsp; &amp;nbsp; III&lt;br&gt;&lt;br&gt;&amp;nbsp; 96 hr&amp;nbsp; &amp;nbsp; &amp;nbsp; &amp;nbsp;III&amp;nbsp; &amp;nbsp; &amp;nbsp; &amp;nbsp; &amp;nbsp; &amp;nbsp; &amp;nbsp;III&amp;nbsp; &amp;nbsp; &amp;nbsp; &amp;nbsp; &amp;nbsp; &amp;nbsp; III&lt;br&gt;&lt;br&gt;&amp;nbsp; &amp;nbsp; &amp;nbsp; &amp;nbsp; &amp;nbsp; &amp;nbsp; &amp;nbsp;&lt;b&gt;&lt;font style=&quot;font-size: 14px&quot; color=&quot;#3333ff&quot;&gt;(RNA-extraction)&lt;/font&gt;&lt;/b&gt;" style="rounded=0;whiteSpace=wrap;html=1;align=left;fillColor=#ffcc99;strokeColor=#36393d;" parent="1" vertex="1">
          <mxGeometry x="-820" y="-2130" width="190" height="140" as="geometry" />
        </mxCell>
        <mxCell id="ArJFxkqIO9tiFq1VX1RK-10" value="" style="endArrow=none;html=1;strokeColor=#000000;dashed=1;" parent="1" edge="1">
          <mxGeometry width="50" height="50" relative="1" as="geometry">
            <mxPoint x="-789" y="-2100" as="sourcePoint" />
            <mxPoint x="-629" y="-2100" as="targetPoint" />
          </mxGeometry>
        </mxCell>
        <mxCell id="ArJFxkqIO9tiFq1VX1RK-11" value="" style="endArrow=none;html=1;strokeColor=#000000;dashed=1;" parent="1" edge="1">
          <mxGeometry width="50" height="50" relative="1" as="geometry">
            <mxPoint x="-780" y="-2120" as="sourcePoint" />
            <mxPoint x="-780" y="-2020" as="targetPoint" />
          </mxGeometry>
        </mxCell>
        <mxCell id="MbkeHWpkh6mdkT8xZG1D-7" value="" style="edgeStyle=orthogonalEdgeStyle;rounded=0;orthogonalLoop=1;jettySize=auto;html=1;strokeColor=#000000;strokeWidth=2;" edge="1" parent="1" source="MbkeHWpkh6mdkT8xZG1D-1" target="MbkeHWpkh6mdkT8xZG1D-6">
          <mxGeometry relative="1" as="geometry" />
        </mxCell>
        <mxCell id="MbkeHWpkh6mdkT8xZG1D-1" value="Paired-end Illumina sequencing (150bp)&lt;br&gt;&lt;b&gt;(Fastq files)&lt;/b&gt;" style="rounded=1;whiteSpace=wrap;html=1;fillColor=#eeeeee;strokeColor=#36393d;" vertex="1" parent="1">
          <mxGeometry x="-560" y="-2110" width="140" height="100" as="geometry" />
        </mxCell>
        <mxCell id="MbkeHWpkh6mdkT8xZG1D-11" value="" style="edgeStyle=orthogonalEdgeStyle;rounded=0;orthogonalLoop=1;jettySize=auto;html=1;strokeColor=#000000;strokeWidth=2;" edge="1" parent="1" source="MbkeHWpkh6mdkT8xZG1D-6" target="MbkeHWpkh6mdkT8xZG1D-10">
          <mxGeometry relative="1" as="geometry" />
        </mxCell>
        <mxCell id="MbkeHWpkh6mdkT8xZG1D-6" value="1. FastQC (Quality check)&lt;br&gt;&lt;br&gt;&lt;br&gt;2. Trimmomatic (Trimming/Quality filter)" style="rounded=0;whiteSpace=wrap;html=1;fillColor=#cdeb8b;strokeColor=#36393d;align=center;" vertex="1" parent="1">
          <mxGeometry x="-380" y="-2130" width="140" height="140" as="geometry" />
        </mxCell>
        <mxCell id="MbkeHWpkh6mdkT8xZG1D-18" style="edgeStyle=orthogonalEdgeStyle;rounded=0;orthogonalLoop=1;jettySize=auto;html=1;entryX=0.5;entryY=0;entryDx=0;entryDy=0;strokeColor=#000000;strokeWidth=2;" edge="1" parent="1" source="MbkeHWpkh6mdkT8xZG1D-10" target="MbkeHWpkh6mdkT8xZG1D-12">
          <mxGeometry relative="1" as="geometry" />
        </mxCell>
        <mxCell id="MbkeHWpkh6mdkT8xZG1D-10" value="Processed paired end fastq files" style="rounded=1;whiteSpace=wrap;html=1;align=center;fillColor=#eeeeee;strokeColor=#36393d;" vertex="1" parent="1">
          <mxGeometry x="-190" y="-2105" width="100" height="90" as="geometry" />
        </mxCell>
        <mxCell id="MbkeHWpkh6mdkT8xZG1D-25" value="" style="edgeStyle=orthogonalEdgeStyle;rounded=0;orthogonalLoop=1;jettySize=auto;html=1;strokeColor=#000000;strokeWidth=2;" edge="1" parent="1" source="MbkeHWpkh6mdkT8xZG1D-12" target="MbkeHWpkh6mdkT8xZG1D-24">
          <mxGeometry relative="1" as="geometry" />
        </mxCell>
        <mxCell id="MbkeHWpkh6mdkT8xZG1D-12" value="Aligned against eukaryotic rRNA database&lt;br&gt;&lt;b&gt;(Bowtie2)&lt;/b&gt;" style="rounded=1;whiteSpace=wrap;html=1;align=center;fillColor=#ffff88;strokeColor=#36393d;" vertex="1" parent="1">
          <mxGeometry x="-250" y="-1960" width="220" height="60" as="geometry" />
        </mxCell>
        <mxCell id="MbkeHWpkh6mdkT8xZG1D-24" value="Extract unaligned paired-end fastq files" style="rounded=1;whiteSpace=wrap;html=1;align=center;fillColor=#eeeeee;strokeColor=#36393d;" vertex="1" parent="1">
          <mxGeometry x="-550" y="-1960" width="220" height="60" as="geometry" />
        </mxCell>
      </root>
    </mxGraphModel>
  </diagram>
</mxfile>
